<?xml version="1.0" standalone="no"?>
<!DOCTYPE svg PUBLIC "-//W3C//DTD SVG 1.1//EN" "http://www.w3.org/Graphics/SVG/1.1/DTD/svg11.dtd">
<svg xmlns="http://www.w3.org/2000/svg">
<metadata>Generated by Fontastic.me</metadata>
<defs>
<font id="untitled-font-1" horiz-adv-x="512">
<font-face font-family="untitled-font-1" units-per-em="512" ascent="480" descent="-32"/>
<missing-glyph horiz-adv-x="512" />

<glyph glyph-name="link" unicode="&#98;" d="M435 275l-67 0c-9 33-39 58-75 58l-74 0c-36 0-66-24-75-58l-67 0c-10 0-19-9-19-19 0-10 9-19 19-19l67 0c9-33 39-58 75-58l74 0c36 0 66 25 75 58l67 0c11 0 19 9 19 19 0 10-8 19-19 19z m-142-59l-74 0c-15 0-28 8-35 21l28 0c10 0 19 9 19 19 0 10-9 19-19 19l-28 0c7 13 20 21 35 21l74 0c15 0 28-8 35-21l-28 0c-10 0-19-9-19-19 0-10 9-19 19-19l28 0c-7-13-20-21-35-21z"/>
<glyph glyph-name="nool" unicode="&#97;" d="M12 465c-6-9 9-58 35-112l44-95-44-95c-26-52-41-103-35-113 13-21 492 179 492 208 0 29-479 229-492 207z m230-129l156-68-128 0c-126 0-126 0-159 68-18 36-31 67-28 67 2 0 74-31 159-67z m0-156c-85-36-157-68-159-68-3 0 10 32 28 68 33 68 33 68 159 68l128 0z"/>
<glyph glyph-name="libace-tel" unicode="&#99;" d="M404 200c-11 10-23 15-36 15-14 0-26-5-37-15l-34-31c-3 1-6 3-8 4-4 2-8 3-11 5-32 18-61 42-88 74-14 15-23 28-29 41 8 8 17 15 24 23 3 2 7 5 9 8 23 21 23 47 0 68l-29 27c-3 3-7 6-10 9-6 6-13 12-20 18-10 10-23 15-36 15-13 0-26-5-37-15 0 0 0 0 0 0l-36-34c-14-12-22-27-24-45-2-29 7-56 14-73 18-43 44-83 82-125 47-51 104-92 169-120 24-11 57-24 94-26 2 0 5 0 7 0 25 0 46 8 62 24 0 0 0 0 0 1 6 6 12 11 19 17 5 4 10 9 14 13 11 10 16 22 16 34 0 12-5 24-16 34z m38-104c0 0 0 0 0 0-4-4-8-7-13-12-7-6-14-12-21-19-10-11-23-16-40-16-2 0-3 0-5 0-32 2-61 14-84 23-60 27-114 65-158 114-37 40-61 77-78 117-10 25-13 44-12 62 1 11 6 21 15 29l37 33c5 5 11 7 16 7 7 0 12-4 16-7 0 0 0 0 0 0 7-6 13-11 20-18 3-3 6-6 10-9l29-27c11-10 11-20 0-30-3-3-6-6-9-9-9-8-18-16-27-24 0 0-1 0-1 0-9-9-7-17-5-22 0-1 0-1 0-1 8-17 18-33 35-52l0 0c30-33 61-59 95-79 5-3 9-5 13-7 4-2 8-3 11-5 1 0 1-1 1-1 4-1 7-2 11-2 9 0 15 5 16 7l37 33c4 3 10 7 16 7 7 0 12-3 16-7 0 0 0 0 0 0l59-54c11-10 11-20 0-31z m-165 281c28-4 53-17 74-35 20-19 33-42 38-68 1-6 8-11 15-11 0 0 1 0 2 0 8 2 13 8 12 16-6 31-22 59-47 82-24 22-55 37-89 42-8 1-16-4-17-11-1-7 4-14 12-15z m233-94c-10 51-36 97-77 134-40 37-91 62-147 70-8 2-16-3-17-10-1-8 4-15 12-16 50-8 96-29 132-62 36-33 60-75 68-121 2-6 8-11 15-11 1 0 1 0 2 0 8 1 13 8 12 16z"/>
<glyph glyph-name="libace-email" unicode="&#100;" d="M513 416c0 18-12 33-26 33l-1 0-460-1c-7 0-14-3-19-10-5-6-7-14-7-23l0-320c0-9 3-17 8-23 5-6 11-10 18-10l0 0 461 1c14 0 26 15 26 33z m-55 0l-202-173-201 172z m-116-206l119-114-409-1 120 115c5 6 6 16 2 23-4 7-13 9-18 3l-130-124 0 289 223-191c2-2 5-3 7-3 3 0 6 1 8 3l223 191 0-289-129 124c-6 6-14 4-19-3-4-7-3-17 3-23z"/>
<glyph glyph-name="libace-tw" unicode="&#102;" d="M0 516l0-517 514 0 0 517z m405-177c0-3 0-6 0-9 0-123-96-222-214-222-42 0-82 13-115 35l0 0c65-10 111 32 111 32-58 5-69 54-69 54 20-3 33 2 33 2-65 15-60 77-60 77 15-9 33-10 33-10-58 52-22 103-22 103 60-76 149-81 155-81-2 6-2 12-2 18 0 42 33 77 75 77 22 0 41-9 55-24 4 1 7 2 11 3 21 8 36 16 36 16-3-23-30-47-32-48 0 0 0-5 0-5 0 0 0 0 0 0 21 0 42 16 42 16-6-14-33-31-37-34z"/>
<glyph glyph-name="libace-fb" unicode="&#103;" d="M0 512l0-515 274 0 0 199-67 0 0 81 67 0 0 69c0 49 41 89 90 89l70 0 0-73-50 0c-16 0-28-12-28-28l0-57 77 0-11-81-66 0 0-199 159 0 0 515z"/>
<glyph glyph-name="libace-yt" unicode="&#101;" d="M298 182c0 2-1 4-2 6-1 2-3 3-5 4-3 0-6-1-8-3-1-1-1-2-1-2l0-61 0-2c0 0 1 0 1 0 1-2 3-4 6-4 4-1 7 1 8 5 1 1 1 2 1 3 0 18 0 36 0 54z m0 0c0 2-1 4-2 6-1 2-3 3-5 4-3 0-6-1-8-3-1-1-1-2-1-2l0-61 0-2c0 0 1 0 1 0 1-2 3-4 6-4 4-1 7 1 8 5 1 1 1 2 1 3 0 18 0 36 0 54z m68 92c-72 2-145 2-217 0-25 0-45-21-45-46l0-113c0-25 20-45 45-46 72-1 145-1 217 0 25 1 45 21 45 46l0 113c0 25-20 46-45 46z m-196-169l-20 0 0 118-22 0 0 19 64 0 0-19-22 0z m75 49l0-49-18 0 0 11c-1 0-1-1-2-1-4-5-8-8-14-10-3-1-6-2-9-1-4 0-6 3-8 6-2 4-2 7-2 11 0 14 0 85 0 85l18 0c0 0 1-51 1-76 0-2 0-3 0-4 1-4 3-5 6-4 4 1 7 4 9 7 1 0 1 1 1 2l0 76 18 0 0-53z m70-39c-2-8-8-11-16-11-6 0-11 2-15 7-1 0-2 2-2 2l0-8-19 0 0 137 19 0 0-45c0 0 1 2 2 3 3 4 6 6 11 7 7 2 15 0 19-9 2-4 3-10 3-15 0-19 0-38 0-58 0-3-1-7-2-10z m68 4c-3-10-9-15-19-16-6-1-12-1-18 1-7 4-12 10-14 18-1 4-1 8-1 12 0 15 0 30 0 45 0 8 2 15 7 21 6 7 14 10 23 9 3 0 6-1 8-1 9-3 14-10 15-19 1-3 1-6 1-10 1-8 0-26 0-26l-35 0 0-25c0-4 4-8 8-8 5 0 9 4 9 8l0 13 19 0c0 0 0-15-3-22z m-16 64c0 5-4 9-9 9-4 0-8-4-8-9l0-14 16 0 0 14z m-71 5c-1 2-3 3-5 4-3 0-6-1-8-3-1-1-1-2-1-2l0-61 0-2c0 0 1 0 1 0 1-2 3-4 6-4 4-1 7 1 8 5 1 1 1 2 1 3 0 18 0 36 0 54 0 2-1 4-2 6z m48 217l0-102-19 0 0 11c-2-3-4-4-6-6-4-3-8-5-12-6-7-2-13 0-16 8 0 2-1 5-1 7l0 88 19 0 0-78c0-1 0-2 0-3 1-3 3-5 6-4 4 1 7 4 9 7 1 1 1 1 1 2l0 76 19 0z m-157-18c-4 17-12 54-12 54l-22 0c0 0 16-55 24-80 0 0 0-1 0-2l0-56 20 0 0 56c0 1 0 2 0 2 8 25 24 80 24 80l-21 0c0 0-9-37-13-54z m60 20c-15 0-27-12-27-27l0-53c0-15 12-27 27-27 15 0 27 12 27 27l0 53c0 15-12 27-27 27z m8-81c0-4-3-8-8-8-4 0-7 4-7 8l0 55c0 4 3 8 7 8 5 0 8-4 8-8z"/>
<glyph glyph-name="libace-up" unicode="&#104;" d="M238 340l0-227 36 0 0 228 129-127 22 22-169 163-169-163 22-22z"/>
<glyph glyph-name="libace-right" unicode="&#105;" d="M219 397c0 0 116-121 116-121 5-5 8-12 8-20 0-8-3-14-8-19 0 0-116-121-116-121-5-6-12-8-20-8-9 0-15 2-21 8-12 12-12 26 0 41 0 0 95 99 95 99 0 0-95 100-95 100-12 15-12 29 0 41 6 6 13 9 21 9 9 0 15-3 20-9"/>
<glyph glyph-name="ico-lisaseadmed" unicode="&#106;" d="M380 252l0 0-241 1c-2 1-5 3-5 6 0 2 3 5 5 5l241-2c3 0 5-2 5-5 0-2-2-5-5-5m16-99l-279 0c-12 0-22 10-22 22l0 161c0 12 10 22 22 22l279 0c12 0 22-10 22-22l0-161c0-12-10-22-22-22m-279 195c-7 0-12-5-12-12l0-161c0-7 5-12 12-12l279 0c7 0 12 5 12 12l0 161c0 7-5 12-12 12z m18-68l0 0c-3 0-5 2-5 5l0 46c0 3 2 5 5 5 3 0 5-2 5-5l0-46c0-3-2-5-5-5m30 0l0 0c-3 0-5 2-5 5l0 46c0 3 2 5 5 5 3 0 5-2 5-5l0-46c0-3-2-5-5-5m30 0l0 0c-3 0-5 2-5 5l0 46c0 2 2 5 5 5 3 0 5-3 5-5l0-46c0-3-2-5-5-5m30 0l0 0c-3 0-5 2-5 5l0 46c0 2 2 5 5 5 3 0 5-3 5-6l0-45c0-3-2-5-5-5m30 0l0 0c-3 0-5 2-5 5l0 45c0 3 3 6 5 5 3 0 5-2 5-5l0-45c0-3-2-5-5-5m30-1l0 0c-3 0-5 3-5 5l0 46c0 3 3 5 5 5 3 0 5-2 5-5l0-46c0-2-2-5-5-5m33 1l0 0c-3 0-5 2-5 5l0 46c0 3 2 5 5 5 3 0 5-2 5-5l0-46c0-3-3-5-5-5m30 0l0 0c-3 0-5 2-5 5l0 46c0 3 2 5 5 5 3 0 5-2 5-5l0-46c0-3-2-5-5-5m30 0l0 0c-3 0-5 2-5 5l0 46c0 2 2 5 5 5 3 0 5-3 5-5l0-46c0-3-2-5-5-5m130-24l-5 0c0-69-27-130-72-175-45-45-106-72-175-72-68 0-129 27-174 72-45 45-72 106-72 175 0 68 27 129 72 174 45 45 106 72 174 72 69 0 130-27 175-72 45-45 72-106 72-174l10 0c0 70-29 135-75 181-47 46-111 75-182 75-70 0-135-29-181-75-46-46-75-111-75-181 0-71 29-135 75-182 46-46 111-75 181-75 71 0 135 29 182 75 46 47 75 111 75 182z"/>
<glyph glyph-name="ico-maakyte" unicode="&#107;" d="M240 387c-2 0-4 1-4 3l0 11c0 12 10 22 22 22 12 0 21-10 21-22l0-8c0-2-1-3-3-3-2 0-4 1-4 3l0 8c0 8-6 15-14 15-8 0-15-7-15-15l0-11c0-2-1-3-3-3m43-41c-1 0-2 1-2 1-2 2-2 4 0 5l17 18c3 3 5 6 5 10 0 4-2 8-5 10-5 6-14 6-20 1-1-2-3-1-5 0-1 1-1 4 0 5 9 8 22 8 30-1 4-4 7-9 7-15 0-6-3-11-7-15l-17-18c-1 0-2-1-3-1m-47-7c-1 0-2 1-3 1l-24 25c-9 8-9 22 0 30 8 9 22 9 30 0l14-14c2-1 2-3 0-4-1-2-3-2-5 0l-14 13c-5 6-14 6-20 0-6-5-6-15 0-20l24-25c2-1 2-3 0-5 0 0-1-1-2-1m20-63c-6 0-11 2-15 6l-44 44c-4 4-7 9-7 15 0 6 3 11 7 16 8 8 22 8 30 0l20-21c2-1 2-3 0-5-1-1-3-1-4 0l-21 21c-5 5-15 5-20 0-6-6-6-15 0-21l44-44c5-6 15-6 20 0l45 44c2 3 4 6 4 10 0 4-2 8-4 11-6 5-15 5-21 0-1-2-4-2-5 0-1 1-1 3 0 5 8 8 22 8 30 0 5-5 7-10 7-16 0-6-2-11-7-15l-44-44c-4-4-9-6-15-6m0-42c-2 0-3 2-3 4l0 41c0 2 1 4 3 4 2 0 4-2 4-4l0-41c0-2-2-4-4-4m252 22l-5 0c0-69-27-130-72-175-45-45-106-72-175-72-68 0-129 27-174 72-45 45-72 106-72 175 0 68 27 129 72 174 45 45 106 72 174 72 69 0 130-27 175-72 45-45 72-106 72-174l10 0c0 70-29 135-75 181-47 46-111 75-182 75-70 0-135-29-181-75-46-46-75-111-75-181 0-71 29-135 75-182 46-46 111-75 181-75 71 0 135 29 182 75 46 47 75 111 75 182z m-113-26l-278 0c-2 0-4 2-4 4 0 2 2 3 4 3l278 0c2 0 4-1 4-3 0-2-2-4-4-4m-32-33c2 0 3-1 3-3l0-106c0-1-1-3-3-3-2 0-3 2-3 3l0 106c0 2 1 3 3 3m0 0c1 0 1 0 2-1 1-1 1-3 0-4l-40-40c-1-1-3-1-5 0-1 1-1 3 0 4l41 40c0 1 1 1 2 1m0 0c1 0 1 0 2-1l40-40c1-1 1-3 0-4-1-1-3-1-4 0l-40 40c-2 1-2 3 0 4 0 1 1 1 2 1m-107 0c2 0 3-1 3-3l0-106c0-1-1-3-3-3-2 0-3 2-3 3l0 106c0 2 1 3 3 3m0 0c1 0 2 0 2-1 1-1 1-3 0-4l-40-40c-1-1-3-1-4 0-2 1-2 3 0 4l40 40c0 1 1 1 2 1m0 0c1 0 2 0 2-1l40-40c2-1 2-3 0-4-1-1-3-1-4 0l-40 40c-1 1-1 3 0 4 0 1 1 1 2 1m-107 0c2 0 4-1 4-3l0-106c0-1-2-3-4-3-1 0-3 2-3 3l0 106c0 2 2 3 3 3m0 0c1 0 2 0 3-1 1-1 1-3 0-4l-41-40c-1-1-3-1-4 0-1 1-1 3 0 4l40 40c1 1 2 1 2 1m0 0c1 0 2 0 3-1l40-40c1-1 1-3 0-4-1-1-3-1-4 0l-41 40c-1 1-1 3 0 4 1 1 2 1 2 1"/>
<glyph glyph-name="ico-ohk-ohk-kyte" unicode="&#108;" d="M508 256l-5 0c0-69-27-130-72-175-45-45-106-72-175-72-68 0-129 27-174 72-45 45-72 106-72 175 0 68 27 129 72 174 45 45 106 72 174 72 69 0 130-27 175-72 45-45 72-106 72-174l10 0c0 70-29 135-75 181-47 46-111 75-182 75-70 0-135-29-181-75-46-46-75-111-75-181 0-71 29-135 75-182 46-46 111-75 181-75 71 0 135 29 182 75 46 47 75 111 75 182z m-345-6l187 0c3 0 5 2 5 6 0 3-2 5-5 5l-187 0c-3 0-5-2-5-5 0-4 2-6 5-6m0-37l121 0c4 0 9 0 15-1 4 0 8-1 12-3 3-1 6-2 8-3 4-3 8-6 10-11 2-4 4-10 4-18 0-5-1-9-3-13-3-6-7-10-12-13-5-3-12-5-18-5-3 0-7 1-11 2-5 2-9 5-12 10-4 4-6 11-6 19 0 1 0 1 0 2 0 3-2 6-5 6-3 0-6-3-6-6 0 0 0-1 0-2 0-7 1-13 3-18 4-8 9-15 16-18 6-4 14-6 21-6 11 0 22 3 30 11 4 3 8 8 10 13 3 5 4 12 4 18 0 11-3 20-7 27-4 5-8 9-13 12-7 4-15 6-22 7-7 1-13 1-18 1l-121 0c-3 0-5-3-5-6 0-3 2-5 5-5m0 74l121 0c4 0 10 0 16 1 4 1 9 1 14 3 4 1 8 3 11 5 6 3 10 8 14 14 3 7 5 15 5 24 0 7-1 13-4 18-3 8-9 14-16 18-8 4-16 6-24 6-5 0-10 0-14-2-7-3-14-7-19-14-4-7-7-16-7-26 0-1 0-1 0-2 0-3 3-6 6-6 3 1 5 3 5 6 0 1 0 1 0 2 0 6 1 10 3 14 2 6 6 10 11 13 4 3 10 4 15 4 8 0 17-3 23-8 3-3 5-6 7-10 2-3 3-8 3-13 0-9-2-16-5-21-3-3-6-6-10-8-5-3-11-5-17-6-7-1-12-1-17-1-15 0-121 0-121 0-3 0-5-2-5-5 0-3 2-6 5-6"/>
<glyph glyph-name="ico-pdf" unicode="&#109;" d="M340 512l-264 0c-7 0-13-6-13-18l0-483c0-3 6-9 13-9l365 0c7 0 13 6 13 9l0 383c0 6-1 8-2 10l-106 106c-2 1-4 2-6 2z m5-1l0-108 108 0z m-164-302c-3 0-6 1-9 3-9 7-11 15-10 20 2 15 20 30 55 46 13 30 26 67 34 98-9 20-18 45-11 60 2 6 5 10 10 12 2 0 7 1 9 1 5 0 9-6 12-9 2-4 8-11-4-62 12-26 30-52 47-69 11 2 22 3 30 3 14 0 23-3 26-10 3-6 2-12-3-20-5-7-12-11-20-11-11 0-24 7-39 21-25-5-56-15-80-25-8-17-15-30-22-39-9-13-17-19-25-19z m24 46c-19-11-27-20-28-25 0 0 0-3 4-6 2 0 9 4 24 31z m124 41c8-6 10-9 14-9 3 0 9 0 11 4 2 2 2 3 3 4-2 1-3 2-11 2-5 0-10 0-17-1z m-68 60c-6-23-15-47-24-69 19 7 40 14 59 18-12 14-24 32-35 51z m-5 77c-1-1-12-16 1-30 8 20-1 30-1 30z m185-431l-365 0c-7 0-13 6-13 14l0 141 391 0 0-141c0-8-6-14-13-14z m-279 28l-15 0 0 91 26 0c4 0 8 0 12-2 3-1 7-3 10-5 3-3 5-6 7-9 2-4 3-8 3-12 0-5-1-9-2-13-2-3-4-7-7-9-3-3-6-5-10-6-4-2-8-2-13-2l-11 0z m0 80l0-36 13 0c2 0 4 0 6 1 2 0 3 1 5 3 1 1 2 3 3 6 1 2 2 5 2 9 0 1-1 3-1 5 0 2-1 4-3 6-1 1-3 3-5 4-2 1-5 2-9 2l-11 0z m135-32c0-8-1-14-3-19-1-6-3-10-6-14-2-3-5-6-8-8-3-2-6-4-9-5-3-1-6-2-8-2-3 0-4 0-6 0l-34 0 0 91 27 0c8 0 15-1 21-3 5-3 10-6 14-10 4-4 7-9 9-14 2-5 3-11 3-16z m-45-37c10 0 18 3 22 9 5 7 7 16 7 28 0 4 0 8-1 12-1 3-3 7-6 10-2 3-6 5-10 7-5 2-11 3-18 3l-8 0 0-69 14 0z m82 69l0-29 38 0 0-10-38 0 0-41-16 0 0 91 58 0 0-11z"/>
<glyph glyph-name="ico-veri-ohk-kyte" unicode="&#110;" d="M172 104c-39 0-71 32-71 71 0 38 65 136 68 140 1 3 5 3 7 0 3-4 67-102 67-140 0-39-32-71-71-71m0 201c-13-21-62-99-62-130 0-34 28-62 62-62 35 0 63 28 63 62 0 31-49 109-63 130m0-178c-26 0-47 21-47 47 0 3 2 5 4 5 3 0 5-2 5-5 0-21 17-38 38-38 2 0 4-2 4-4 0-3-2-5-4-5m336 129l-5 0c0-69-27-130-72-175-45-45-106-72-175-72-68 0-129 27-174 72-45 45-72 106-72 175 0 68 27 129 72 174 45 45 106 72 174 72 69 0 130-27 175-72 45-45 72-106 72-174l10 0c0 70-29 135-75 181-47 46-111 75-182 75-70 0-135-29-181-75-46-46-75-111-75-181 0-71 29-135 75-182 46-46 111-75 181-75 71 0 135 29 182 75 46 47 75 111 75 182z m-180-23l0 161c0 2-2 5-4 5-3 0-5-3-5-5l0-161c0-3 2-5 5-5 2 0 4 2 4 5m33 0l0 105c0 3 0 7 0 12 1 3 1 7 2 10 1 3 2 5 4 8 2 3 5 6 8 8 4 2 9 3 16 3 5 0 8-1 12-2 5-2 8-6 11-11 3-4 4-9 4-15 0-3 0-6-2-9-1-4-4-8-8-11-4-3-9-5-17-5 0 0-1 0-1 0-3 0-5-2-5-4 0-3 2-5 4-5 1 0 2 0 2 0 6 0 12 1 16 3 7 2 12 7 16 13 3 5 5 12 5 18 0 10-3 19-10 26-3 4-7 7-11 9-5 2-10 3-16 3-9 0-17-2-23-6-4-3-8-7-10-11-4-6-5-13-6-19-1-6-1-12-1-15l0-105c0-3 2-5 5-5 2 0 5 2 5 5m-65 0l0 105c0 3 0 8 0 13-1 4-2 8-3 12-1 4-2 7-4 10-3 4-7 9-13 11-5 3-12 5-20 5-6 0-11-1-16-3-6-3-12-9-15-15-4-6-5-13-5-20 0-4 0-8 2-12 2-6 6-12 12-16 6-4 13-6 22-6 1 0 1 0 2 0 3 0 5 2 5 5-1 2-3 4-5 4-1 0-1 0-2 0-5 0-9 1-12 2-5 3-9 6-11 10-3 4-4 8-4 13 0 7 3 14 7 20 2 2 5 4 9 6 3 1 7 2 11 2 8 0 14-2 18-4 3-2 5-5 7-8 3-5 4-10 5-16 1-5 1-10 1-13l0-105c0-3 2-5 4-5 3 0 5 2 5 5"/>
<glyph glyph-name="angle-left" unicode="&#111;" d="M344 357c0-3-1-5-3-7l-112-112 112-113c2-1 3-4 3-6 0-3-1-5-3-7l-14-14c-2-2-5-3-7-3-2 0-5 1-7 3l-133 133c-2 2-3 4-3 7 0 2 1 4 3 6l133 133c2 2 5 3 7 3 2 0 5-1 7-3l14-14c2-2 3-4 3-6z"/>
<glyph glyph-name="angle-right" unicode="&#112;" d="M335 238c0-3-1-5-3-7l-133-133c-2-2-5-3-7-3-2 0-5 1-7 3l-14 14c-2 2-3 4-3 7 0 2 1 5 3 6l112 113-112 112c-2 2-3 4-3 7 0 2 1 4 3 6l14 14c2 2 5 3 7 3 2 0 5-1 7-3l133-133c2-2 3-4 3-6z"/>
<glyph glyph-name="clock-o" unicode="&#113;" d="M293 357l0-128c0-3-1-5-3-7-2-2-4-3-7-3l-91 0c-3 0-5 1-7 3-1 2-2 4-2 7l0 18c0 3 1 5 2 6 2 2 4 3 7 3l64 0 0 101c0 2 1 4 3 6 1 2 3 3 6 3l18 0c3 0 5-1 7-3 2-2 3-4 3-6z m118-101c0 28-7 54-20 78-14 24-33 43-57 57-24 13-50 20-78 20-28 0-54-7-78-20-24-14-43-33-57-57-13-24-20-50-20-78 0-28 7-54 20-78 14-24 33-43 57-57 24-13 50-20 78-20 28 0 54 7 78 20 24 14 43 33 57 57 13 24 20 50 20 78z m64 0c0-40-9-77-29-110-20-34-46-60-80-80-33-20-70-29-110-29-40 0-77 9-110 29-34 20-60 46-80 80-20 33-29 70-29 110 0 40 9 77 29 110 20 34 46 60 80 80 33 20 70 29 110 29 40 0 77-9 110-29 34-20 60-46 80-80 20-33 29-70 29-110z"/>
<glyph glyph-name="map-marker" unicode="&#114;" d="M329 329c0 20-7 38-21 52-15 14-32 21-52 21-20 0-37-7-52-21-14-14-21-32-21-52 0-20 7-37 21-52 15-14 32-21 52-21 20 0 37 7 52 21 14 15 21 32 21 52z m73 0c0-21-3-38-9-51l-104-221c-3-6-8-11-14-15-6-4-12-5-19-5-7 0-13 1-19 5-6 4-11 9-14 15l-104 221c-6 13-9 30-9 51 0 41 14 75 43 104 28 28 63 42 103 42 40 0 75-14 103-42 29-29 43-63 43-104z"/>
<glyph glyph-name="calendar-o" unicode="&#115;" d="M55 37l402 0 0 292-402 0z m110 347l0 82c0 3-1 5-3 7-2 2-4 2-7 2l-18 0c-3 0-5 0-6-2-2-2-3-4-3-7l0-82c0-3 1-5 3-7 1-1 3-2 6-2l18 0c3 0 5 1 7 2 2 2 3 4 3 7z m219 0l0 82c0 3-1 5-3 7-1 2-3 2-6 2l-18 0c-3 0-5 0-7-2-2-2-3-4-3-7l0-82c0-3 1-5 3-7 2-1 4-2 7-2l18 0c3 0 5 1 6 2 2 2 3 4 3 7z m110 18l0-365c0-10-4-19-11-26-7-7-16-11-26-11l-402 0c-10 0-19 4-26 11-7 7-11 16-11 26l0 365c0 10 4 19 11 26 7 7 16 11 26 11l36 0 0 27c0 13 5 24 14 33 9 9 20 13 32 13l18 0c13 0 24-4 33-13 9-9 13-20 13-33l0-27 110 0 0 27c0 13 4 24 13 33 9 9 20 13 33 13l18 0c12 0 23-4 32-13 9-9 14-20 14-33l0-27 36 0c10 0 19-4 26-11 7-7 11-16 11-26z"/>
<glyph glyph-name="user-plus" unicode="&#117;" d="M165 256c-31 0-57 11-78 32-21 22-32 47-32 78 0 30 11 56 32 77 21 22 47 32 78 32 30 0 56-10 77-32 22-21 32-47 32-77 0-31-10-56-32-78-21-21-47-32-77-32z m274-37l100 0c3 0 5 0 7-2 2-2 3-4 3-7l0-55c0-2-1-4-3-6-2-2-4-3-7-3l-100 0 0-100c0-3-1-5-3-7-2-2-4-2-6-2l-55 0c-3 0-5 0-7 2-1 2-2 4-2 7l0 100-101 0c-2 0-4 1-6 3-2 2-3 4-3 6l0 55c0 3 1 5 3 7 2 2 4 2 6 2l101 0 0 101c0 2 1 5 2 6 2 2 4 3 7 3l55 0c2 0 4-1 6-3 2-1 3-4 3-6z m-210-64c0-9 3-18 10-25 8-8 16-11 26-11l73 0 0-68c-13-10-29-14-49-14l-249 0c-23 0-42 6-56 19-14 13-21 32-21 55 0 10 1 20 1 29 1 10 2 20 4 31 2 11 5 22 8 31 3 10 7 19 12 28 5 9 11 17 18 23 7 7 15 12 24 16 10 3 21 5 32 5 4 0 8-1 11-5 15-11 30-20 45-26 14-6 30-8 47-8 17 0 32 2 47 8 14 6 29 15 44 26 4 4 7 5 11 5 25 0 46-9 62-27l-64 0c-10 0-18-4-26-11-7-7-10-16-10-26z"/>
<glyph glyph-name="facebook" unicode="&#116;" d="M384 509l0-76-45 0c-17 0-28-3-33-10-6-7-9-17-9-31l0-54 84 0-11-85-73 0 0-216-87 0 0 216-73 0 0 85 73 0 0 62c0 36 10 63 29 83 20 19 47 29 80 29 28 0 49-1 65-3z"/>
<glyph glyph-name="instagram" unicode="&#118;" d="M426 105l0 185-39 0c4-12 6-25 6-38 0-24-6-46-18-66-13-20-29-36-50-48-21-12-44-18-69-18-37 0-69 13-96 39-27 26-40 57-40 93 0 13 2 26 6 38l-41 0 0-185c0-5 2-10 5-13 4-3 8-5 13-5l305 0c5 0 9 2 13 5 3 3 5 8 5 13z m-81 152c0 23-9 44-26 60-18 17-38 25-63 25-24 0-45-8-62-25-17-16-26-37-26-60 0-24 9-44 26-61 17-16 38-25 62-25 25 0 45 9 63 25 17 17 26 37 26 61z m81 103l0 47c0 5-2 10-6 14-4 4-8 6-14 6l-50 0c-5 0-10-2-14-6-4-4-5-9-5-14l0-47c0-6 1-10 5-14 4-4 9-6 14-6l50 0c6 0 10 2 14 6 4 4 6 8 6 14z m49 59l0-326c0-16-5-29-16-40-11-11-24-16-40-16l-326 0c-16 0-29 5-40 16-11 11-16 24-16 40l0 326c0 16 5 29 16 40 11 11 24 16 40 16l326 0c16 0 29-5 40-16 11-11 16-24 16-40z"/>
<glyph glyph-name="twitter" unicode="&#119;" d="M481 395c-13-18-28-34-46-47 0-3 0-7 0-12 0-25-3-50-11-74-7-25-18-49-33-71-14-23-32-43-52-61-21-17-45-31-74-41-29-11-60-16-92-16-52 0-99 14-142 42 7-1 14-2 22-2 43 0 81 14 115 40-20 0-38 6-54 18-16 12-27 27-33 46 7-1 13-2 18-2 8 0 16 1 24 4-21 4-39 15-53 31-14 17-21 37-21 59l0 1c13-7 27-11 42-11-13 8-23 19-30 32-8 14-11 29-11 44 0 17 4 33 12 47 23-28 51-51 84-68 33-17 69-27 107-29-2 8-3 15-3 22 0 25 9 47 27 65 18 18 40 27 66 27 26 0 49-10 67-29 21 4 40 11 59 22-7-22-21-39-41-51 18 2 35 7 53 14z"/>
<glyph glyph-name="paperplane" unicode="&#120;" d="M505 509c-3 2-6 3-9 3-3 0-6-1-9-3l-480-320c-5-3-8-9-7-15 1-6 5-11 10-13l125-50 59-103c3-5 8-8 14-8 0 0 0 0 0 0 6 0 11 3 14 8l33 55 155-62c2-1 4-1 6-1 3 0 5 1 8 2 4 2 7 7 8 11l80 480c1 7-2 13-7 16z m-455-329l371 247-270-289c-1 1-2 2-4 3z m113-53c0 0 0 0 0 0l303 325-258-403z m240-89l-136 55c-3 1-7 2-10 2l210 326z"/>
<glyph glyph-name="youtube" unicode="&#121;" d="M314 157l0-61c0-12-4-19-11-19-5 0-9 2-13 6l0 86c4 5 8 7 13 7 7 0 11-7 11-19z m97-1l0-13-26 0 0 13c0 13 4 20 13 20 8 0 13-7 13-20z m-276 63l30 0 0 26-89 0 0-26 30 0 0-163 29 0z m82-163l25 0 0 141-25 0 0-108c-6-8-11-12-16-12-4 0-6 2-6 6-1 1-1 4-1 10l0 104-25 0 0-112c0-9 1-16 2-20 2-7 8-11 17-11 9 0 19 6 29 17z m122 42l0 57c0 13 0 23-2 28-3 11-10 16-20 16-10 0-19-5-27-16l0 62-25 0 0-189 25 0 0 14c9-11 17-16 27-16 10 0 17 5 20 16 2 5 2 14 2 28z m97 3l0 4-26 0c0-10 0-16-1-18-1-6-5-10-11-10-9 0-13 7-13 20l0 25 51 0 0 29c0 15-3 26-8 33-7 10-17 15-30 15-13 0-23-5-31-15-5-7-8-18-8-33l0-49c0-15 3-26 9-33 7-10 17-15 31-15 13 0 24 5 30 15 4 5 6 10 6 16 1 1 1 7 1 16z m-174 261l0 60c0 13-4 20-12 20-8 0-12-7-12-20l0-60c0-13 4-20 12-20 8 0 12 7 12 20z m206-215c0-44-3-77-8-100-2-11-8-20-16-28-9-7-18-12-29-13-35-4-88-6-159-6-71 0-124 2-159 6-11 1-20 6-29 13-8 8-14 17-16 28-5 22-8 55-8 100 0 45 3 78 8 100 2 12 8 21 16 29 9 7 18 12 30 13 35 4 87 6 158 6 71 0 124-2 159-6 11-1 20-6 29-13 8-8 14-17 16-29 5-21 8-54 8-100z m-285 365l29 0-35-114 0-77-28 0 0 77c-3 14-9 34-18 61-7 19-13 37-18 53l30 0 20-75z m105-95l0-50c0-16-2-27-8-34-7-10-17-14-30-14-13 0-23 4-30 14-5 7-8 19-8 34l0 50c0 15 3 26 8 33 7 10 17 15 30 15 13 0 23-5 30-15 6-7 8-18 8-33z m96 46l0-142-26 0 0 15c-10-12-20-17-29-17-9 0-15 3-17 10-2 5-3 12-3 22l0 112 26 0 0-105c0-6 1-9 1-10 0-4 2-6 6-6 5 0 10 4 16 12l0 109z"/>
<glyph glyph-name="futbol-o" unicode="&#122;" d="M174 279l82 59 82-59-31-96-102 0z m82 233c35 0 68-7 99-20 32-14 59-32 82-55 23-23 41-50 55-82 13-31 20-64 20-99 0-35-7-68-20-99-14-32-32-59-55-82-23-23-50-41-82-55-31-13-64-20-99-20-35 0-68 7-99 20-32 14-59 32-82 55-23 23-41 50-55 82-13 31-20 64-20 99 0 35 7 68 20 99 14 32 32 59 55 82 23 23 50 41 82 55 31 13 64 20 99 20z m177-386c28 39 42 82 42 130l0 1-29-26-68 64 18 93 38-4c-29 40-66 66-111 81l15-36-82-45-82 45 15 36c-45-15-82-41-111-81l39 4 17-93-68-64-29 26 0-1c0-48 14-91 42-130l9 38 93-11 40-86-34-19c23-8 46-11 69-11 23 0 46 3 69 11l-34 19 40 86 93 11z"/>
<glyph glyph-name="arrow-circle-o-up" unicode="&#65;" d="M356 262c-2-4-4-6-9-6l-54 0 0-101c0-2-1-4-3-6-2-2-4-3-7-3l-54 0c-3 0-5 1-7 3-2 2-3 4-3 6l0 101-54 0c-3 0-5 1-7 3-2 1-3 3-3 6 0 2 1 5 3 7l91 91c3 2 5 3 7 3 2 0 4-1 7-3l91-91c3-3 4-7 2-10z m-100 149c-28 0-54-7-78-20-24-14-43-33-57-57-13-24-20-50-20-78 0-28 7-54 20-78 14-24 33-43 57-57 24-13 50-20 78-20 28 0 54 7 78 20 24 14 43 33 57 57 13 24 20 50 20 78 0 28-7 54-20 78-14 24-33 43-57 57-24 13-50 20-78 20z m219-155c0-40-9-77-29-110-20-34-46-60-80-80-33-20-70-29-110-29-40 0-77 9-110 29-34 20-60 46-80 80-20 33-29 70-29 110 0 40 9 77 29 110 20 34 46 60 80 80 33 20 70 29 110 29 40 0 77-9 110-29 34-20 60-46 80-80 20-33 29-70 29-110z"/>
<glyph glyph-name="arrow-circle-o-down" unicode="&#66;" d="M357 247c0-2-1-5-3-7l-91-91c-3-2-5-3-7-3-2 0-4 1-7 3l-91 91c-3 3-4 7-2 10 2 4 4 6 9 6l54 0 0 101c0 2 1 4 3 6 2 2 4 3 7 3l54 0c3 0 5-1 7-3 2-2 3-4 3-6l0-101 54 0c3 0 5-1 7-3 2-1 3-3 3-6z m-101 164c-28 0-54-7-78-20-24-14-43-33-57-57-13-24-20-50-20-78 0-28 7-54 20-78 14-24 33-43 57-57 24-13 50-20 78-20 28 0 54 7 78 20 24 14 43 33 57 57 13 24 20 50 20 78 0 28-7 54-20 78-14 24-33 43-57 57-24 13-50 20-78 20z m219-155c0-40-9-77-29-110-20-34-46-60-80-80-33-20-70-29-110-29-40 0-77 9-110 29-34 20-60 46-80 80-20 33-29 70-29 110 0 40 9 77 29 110 20 34 46 60 80 80 33 20 70 29 110 29 40 0 77-9 110-29 34-20 60-46 80-80 20-33 29-70 29-110z"/>
<glyph glyph-name="x" unicode="&#67;" d="M416 352l-64 64-96-96-96 96-64-64 96-96-96-96 64-64 96 96 96-96 64 64-96 96z"/>
<glyph glyph-name="info-circled" unicode="&#68;" d="M253 492c65 0 120-22 167-67 46-45 70-100 72-165 0-65-22-121-68-167-45-47-100-71-165-73-65 0-121 22-167 68-47 45-71 100-72 165-1 65 21 121 67 167 46 47 101 71 166 72m27-78c-15 0-26-4-34-13-8-8-12-16-12-25 0-10 2-17 8-23 6-5 14-8 25-8 13 0 24 4 31 11 8 8 12 17 12 28 0 20-10 30-30 30m-62-304c10 0 25 4 43 13 19 9 37 22 54 40 0 0-9 12-9 12-16-12-28-18-37-18-4 0-5 6-2 19 0 0 22 82 22 82 9 33 5 49-11 49-11 0-26-5-46-15-20-10-40-22-59-38 0 0 8-13 8-13 18 11 31 17 38 17 4 0 4-6 0-17 0 0-18-78-18-78-9-36-3-53 17-53"/>
</font>
</defs>
</svg>
